# xmcd CD database file
# Copyright (C) 1993-1998 Ti Kan
#
# Track frame offsets:
#	183
#	29408
#	72745
#	98373
#	127488
#	160855
#
# Disc length: 2454 seconds
#
# Revision: 1
# Processed by: cddbd v1.4b41PL1 Copyright (c) Steve Scherf et al.
# Submitted via: CDValet v3.31 - Copyright (c) 1997 Greg Leichner
#
DISCID=52099406
DTITLE=Cuby and Blizzards - Cuby and Blizzards Live
DYEAR=1900
DGENRE=
TTITLE0=Sugar Mama
TTITLE1=Sweet litle angel
TTITLE2=No way out
TTITLE3=Don´t love you twice
TTITLE4=Five long years
TTITLE5=Dust my blues
EXTD=
EXTT0=
EXTT1=
EXTT2=
EXTT3=
EXTT4=
EXTT5=
PLAYORDER=
